<svg width="94" height="133" viewBox="0 0 94 133" fill="none" xmlns="http://www.w3.org/2000/svg">
<rect width="94" height="133" rx="6" fill="white"/>
<path d="M41.8334 78.6667C43.2222 80.0556 44.9722 80.7089 47.0834 80.6267C49.1945 80.5445 50.7222 79.78 51.6667 78.3334L70.3334 50.3334L42.3334 69C40.8889 70 40.0978 71.5134 39.96 73.54C39.8222 75.5667 40.4467 77.2756 41.8334 78.6667ZM24 93.6667C22.7778 93.6667 21.6534 93.4023 20.6267 92.8734C19.6 92.3445 18.78 91.5534 18.1667 90.5C16.7222 87.8889 15.6111 85.1812 14.8334 82.3767C14.0556 79.5723 13.6667 76.6689 13.6667 73.6667C13.6667 69.0556 14.5422 64.7223 16.2934 60.6667C18.0445 56.6112 20.4189 53.0834 23.4167 50.0834C26.4145 47.0834 29.9422 44.7089 34 42.96C38.0578 41.2112 42.3911 40.3356 47 40.3334C51.5556 40.3334 55.8334 41.1945 59.8334 42.9167C63.8334 44.6389 67.3334 46.9867 70.3334 49.96C73.3334 52.9334 75.7222 56.4056 77.5 60.3767C79.2778 64.3478 80.1945 68.6112 80.25 73.1667C80.3056 76.2223 79.9589 79.2089 79.21 82.1267C78.4611 85.0445 77.3078 87.8356 75.75 90.5C75.1389 91.5556 74.32 92.3478 73.2934 92.8767C72.2667 93.4056 71.14 93.6689 69.9134 93.6667H24Z" fill="#042A4B"/>
</svg>
