<svg width="94" height="133" viewBox="0 0 94 133" fill="none" xmlns="http://www.w3.org/2000/svg">
<rect width="94" height="133" rx="6" fill="white"/>
<path d="M60.75 47.625C60.75 47.2812 60.4688 47 60.125 47H30.125C29.7812 47 29.5 47.2812 29.5 47.625V51.375C29.5 51.7188 29.7812 52 30.125 52H60.125C60.4688 52 60.75 51.7188 60.75 51.375V47.625ZM60.125 58.25H30.125C29.7812 58.25 29.5 58.5312 29.5 58.875V62.625C29.5 62.9688 29.7812 63.25 30.125 63.25H60.125C60.4688 63.25 60.75 62.9688 60.75 62.625V58.875C60.75 58.5312 60.4688 58.25 60.125 58.25ZM44.5 69.5H30.125C29.7812 69.5 29.5 69.7812 29.5 70.125V73.875C29.5 74.2188 29.7812 74.5 30.125 74.5H44.5C44.8438 74.5 45.125 74.2188 45.125 73.875V70.125C45.125 69.7812 44.8438 69.5 44.5 69.5ZM40.75 93.5625H23.25V38.5625H67V65.4375C67 65.7812 67.2812 66.0625 67.625 66.0625H72C72.3438 66.0625 72.625 65.7812 72.625 65.4375V35.4375C72.625 34.0547 71.5078 32.9375 70.125 32.9375H20.125C18.7422 32.9375 17.625 34.0547 17.625 35.4375V96.6875C17.625 98.0703 18.7422 99.1875 20.125 99.1875H40.75C41.0938 99.1875 41.375 98.9062 41.375 98.5625V94.1875C41.375 93.8438 41.0938 93.5625 40.75 93.5625ZM68.625 87.75C70.8906 85.6953 72.3125 82.7266 72.3125 79.4219C72.3125 73.2109 67.2734 68.1719 61.0625 68.1719C54.8516 68.1719 49.8125 73.2109 49.8125 79.4219C49.8125 82.7266 51.2344 85.6953 53.5 87.75C49.0469 90.2891 45.9844 94.9922 45.75 100.414C45.7344 100.766 46.0234 101.062 46.375 101.062H50.1328C50.4609 101.062 50.7344 100.805 50.7578 100.469C51.0625 95.0625 55.5703 90.75 61.0625 90.75C66.5547 90.75 71.0625 95.0625 71.3672 100.469C71.3828 100.797 71.6562 101.062 71.9922 101.062H75.75C76.1094 101.062 76.3906 100.766 76.375 100.414C76.1484 94.9844 73.0781 90.2891 68.625 87.75ZM61.0625 73.1719C64.5156 73.1719 67.3125 75.9688 67.3125 79.4219C67.3125 82.875 64.5156 85.6719 61.0625 85.6719C57.6094 85.6719 54.8125 82.875 54.8125 79.4219C54.8125 75.9688 57.6094 73.1719 61.0625 73.1719Z" fill="#042A4B"/>
</svg>
