<svg width="44" height="44" viewBox="0 0 44 44" fill="none" xmlns="http://www.w3.org/2000/svg">
<path d="M34.925 9.00172C33.244 7.30425 31.2419 5.95833 29.0354 5.04239C26.829 4.12645 24.4623 3.65881 22.0733 3.66672C12.0633 3.66672 3.905 11.8251 3.905 21.8351C3.905 25.0434 4.74833 28.1601 6.325 30.9101L3.75833 40.3334L13.3833 37.8034C16.0417 39.2517 19.03 40.0217 22.0733 40.0217C32.0833 40.0217 40.2417 31.8634 40.2417 21.8534C40.2417 16.9951 38.3533 12.4301 34.925 9.00172ZM22.0733 36.9417C19.36 36.9417 16.7017 36.2084 14.3733 34.8334L13.8233 34.5034L8.10333 36.0067L9.625 30.4334L9.25833 29.8651C7.7505 27.458 6.95003 24.6754 6.94833 21.8351C6.94833 13.5117 13.7317 6.72839 22.055 6.72839C26.0883 6.72839 29.8833 8.30506 32.725 11.1651C34.1323 12.5655 35.2475 14.2314 36.006 16.0662C36.7644 17.9009 37.151 19.868 37.1433 21.8534C37.18 30.1767 30.3967 36.9417 22.0733 36.9417ZM30.36 25.6484C29.9017 25.4284 27.665 24.3284 27.2617 24.1634C26.84 24.0167 26.5467 23.9434 26.235 24.3834C25.9233 24.8417 25.0617 25.8684 24.805 26.1617C24.5483 26.4734 24.2733 26.5101 23.815 26.2717C23.3567 26.0517 21.89 25.5567 20.1667 24.0167C18.81 22.8067 17.9117 21.3217 17.6367 20.8634C17.38 20.4051 17.6 20.1667 17.8383 19.9284C18.04 19.7267 18.2967 19.3967 18.5167 19.1401C18.7367 18.8834 18.8283 18.6817 18.975 18.3884C19.1217 18.0767 19.0483 17.8201 18.9383 17.6001C18.8283 17.3801 17.9117 15.1434 17.545 14.2267C17.1783 13.3467 16.7933 13.4567 16.5183 13.4384H15.6383C15.3267 13.4384 14.85 13.5484 14.4283 14.0067C14.025 14.4651 12.8517 15.5651 12.8517 17.8017C12.8517 20.0384 14.4833 22.2017 14.7033 22.4951C14.9233 22.8067 17.9117 27.3901 22.4583 29.3517C23.54 29.8284 24.3833 30.1034 25.0433 30.3051C26.125 30.6534 27.115 30.5984 27.9033 30.4884C28.7833 30.3601 30.5983 29.3884 30.965 28.3251C31.35 27.2617 31.35 26.3634 31.2217 26.1617C31.0933 25.9601 30.8183 25.8684 30.36 25.6484Z" fill="#4E4D4D"/>
</svg>
