<svg width="18" height="18" viewBox="0 0 18 18" fill="none" xmlns="http://www.w3.org/2000/svg">
<path d="M3.46147 14.2486C3.11597 14.2486 2.82772 14.1331 2.59672 13.9021C2.36572 13.6711 2.24997 13.3826 2.24947 13.0366V4.96058C2.24947 4.61508 2.36522 4.32683 2.59672 4.09583C2.82822 3.86483 3.11622 3.74908 3.46072 3.74858H14.5382C14.8832 3.74858 15.1712 3.86433 15.4022 4.09583C15.6332 4.32733 15.7489 4.61558 15.7494 4.96058V13.0373C15.7494 13.3823 15.6337 13.6706 15.4022 13.9021C15.1707 14.1336 14.8827 14.2491 14.5382 14.2486H3.46147ZM14.9994 5.16232L9.33546 8.87032C9.28246 8.89782 9.22896 8.92107 9.17496 8.94007C9.12046 8.95857 9.06196 8.96782 8.99946 8.96782C8.93696 8.96782 8.87846 8.95857 8.82396 8.94007C8.76946 8.92157 8.71596 8.89832 8.66346 8.87032L2.99947 5.16157V13.0366C2.99947 13.1716 3.04272 13.2823 3.12922 13.3688C3.21572 13.4553 3.32647 13.4986 3.46147 13.4986H14.5382C14.6727 13.4986 14.7832 13.4553 14.8697 13.3688C14.9562 13.2823 14.9994 13.1716 14.9994 13.0366V5.16232ZM8.99946 8.24857L14.7684 4.49858H3.23047L8.99946 8.24857ZM2.99947 5.32057V4.71233V4.73783V4.49858V4.73858V4.69958V5.32057Z" fill="white"/>
</svg>
