<svg width="50" height="50" viewBox="0 0 50 50" fill="none" xmlns="http://www.w3.org/2000/svg">
<rect x="0.5" y="0.5" width="49" height="49" rx="24.5" stroke="#322F2F"/>
<path fill-rule="evenodd" clip-rule="evenodd" d="M26.569 44.3974L26.5512 44.4007L26.4359 44.4575L26.4034 44.464L26.3807 44.4575L26.2655 44.4007C26.2481 44.3952 26.2352 44.398 26.2265 44.4088L26.22 44.425L26.1924 45.1198L26.2005 45.1522L26.2168 45.1733L26.3856 45.2935L26.4099 45.3L26.4294 45.2935L26.5982 45.1733L26.6177 45.1474L26.6242 45.1198L26.5966 44.4266C26.5923 44.4093 26.5831 44.3996 26.569 44.3974ZM26.9992 44.214L26.9781 44.2172L26.6778 44.3682L26.6615 44.3844L26.6567 44.4023L26.6859 45.1003L26.694 45.1198L26.707 45.1311L27.0333 45.2821C27.0538 45.2875 27.0695 45.2832 27.0804 45.2691L27.0868 45.2464L27.0317 44.2497C27.0262 44.2302 27.0154 44.2183 26.9992 44.214ZM25.8385 44.2172C25.8314 44.2129 25.8228 44.2115 25.8147 44.2133C25.8065 44.2151 25.7993 44.22 25.7947 44.227L25.785 44.2497L25.7298 45.2464C25.7308 45.2659 25.74 45.2789 25.7574 45.2854L25.7817 45.2821L26.108 45.1311L26.1242 45.1182L26.1307 45.1003L26.1583 44.4023L26.1534 44.3828L26.1372 44.3666L25.8385 44.2172Z" fill="#595858"/>
<path fill-rule="evenodd" clip-rule="evenodd" d="M24.4701 10.2059C25.1107 9.96619 25.8107 9.93494 26.4701 10.1166L26.7493 10.2059L38.1124 14.467C38.6885 14.6831 39.1914 15.0584 39.5625 15.5493C39.9335 16.0402 40.1574 16.6264 40.208 17.2396L40.2194 17.5075V26.2132C40.2193 28.8437 39.5091 31.4253 38.1637 33.6856C36.8182 35.9459 34.8875 37.801 32.5753 39.0552L32.1435 39.2808L26.6989 42.0031C26.3992 42.1528 26.0717 42.239 25.7371 42.2563C25.4025 42.2736 25.0679 42.2217 24.7542 42.1037L24.5205 42.0031L19.0759 39.2808C16.7231 38.1044 14.7316 36.3145 13.3116 34.1002C11.8916 31.8859 11.0957 29.3293 11.0081 26.7002L11 26.2132V17.5075C11 16.8925 11.1747 16.2901 11.5038 15.7705C11.8328 15.2509 12.3027 14.8355 12.8587 14.5725L13.107 14.467L24.4701 10.2059ZM31.1825 20.6502L23.7186 28.1141L20.8486 25.2441C20.544 24.9397 20.1309 24.7688 19.7003 24.769C19.2697 24.7691 18.8568 24.9403 18.5524 25.2449C18.248 25.5495 18.0771 25.9626 18.0773 26.3932C18.0774 26.8238 18.2486 27.2367 18.5532 27.5411L22.4556 31.4435C22.6215 31.6094 22.8183 31.741 23.035 31.8308C23.2517 31.9206 23.484 31.9668 23.7186 31.9668C23.9531 31.9668 24.1854 31.9206 24.4021 31.8308C24.6188 31.741 24.8157 31.6094 24.9815 31.4435L33.4778 22.9455C33.6329 22.7958 33.7565 22.6167 33.8416 22.4186C33.9267 22.2206 33.9715 22.0076 33.9734 21.792C33.9752 21.5765 33.9342 21.3627 33.8525 21.1632C33.7709 20.9637 33.6504 20.7825 33.498 20.6301C33.3455 20.4776 33.1643 20.3571 32.9648 20.2755C32.7653 20.1939 32.5515 20.1528 32.336 20.1547C32.1205 20.1565 31.9075 20.2013 31.7094 20.2864C31.5114 20.3715 31.3322 20.4951 31.1825 20.6502Z" fill="#595858"/>
</svg>
