<svg width="44" height="44" viewBox="0 0 44 44" fill="none" xmlns="http://www.w3.org/2000/svg">
<path d="M22.0018 16.5C20.5431 16.5 19.1442 17.0794 18.1128 18.1109C17.0813 19.1423 16.5018 20.5413 16.5018 22C16.5018 23.4587 17.0813 24.8576 18.1128 25.889C19.1442 26.9205 20.5431 27.5 22.0018 27.5C23.4605 27.5 24.8595 26.9205 25.8909 25.889C26.9224 24.8576 27.5018 23.4587 27.5018 22C27.5018 20.5413 26.9224 19.1423 25.8909 18.1109C24.8595 17.0794 23.4605 16.5 22.0018 16.5ZM22.0018 12.8333C24.433 12.8333 26.7646 13.7991 28.4837 15.5181C30.2027 17.2372 31.1685 19.5688 31.1685 22C31.1685 24.4311 30.2027 26.7627 28.4837 28.4818C26.7646 30.2009 24.433 31.1666 22.0018 31.1666C19.5707 31.1666 17.2391 30.2009 15.52 28.4818C13.8009 26.7627 12.8352 24.4311 12.8352 22C12.8352 19.5688 13.8009 17.2372 15.52 15.5181C17.2391 13.7991 19.5707 12.8333 22.0018 12.8333ZM33.9185 12.375C33.9185 12.9827 33.6771 13.5656 33.2473 13.9954C32.8175 14.4252 32.2346 14.6666 31.6268 14.6666C31.0191 14.6666 30.4362 14.4252 30.0064 13.9954C29.5766 13.5656 29.3352 12.9827 29.3352 12.375C29.3352 11.7672 29.5766 11.1843 30.0064 10.7545C30.4362 10.3247 31.0191 10.0833 31.6268 10.0833C32.2346 10.0833 32.8175 10.3247 33.2473 10.7545C33.6771 11.1843 33.9185 11.7672 33.9185 12.375ZM22.0018 7.33329C17.4662 7.33329 16.7255 7.34613 14.6153 7.43963C13.178 7.50746 12.2137 7.69996 11.319 8.04829C10.5707 8.32397 9.89399 8.76446 9.339 9.33713C8.76567 9.89193 8.32455 10.5686 8.04834 11.3171C7.70001 12.2155 7.50751 13.178 7.44151 14.6135C7.34617 16.6375 7.33334 17.3451 7.33334 22C7.33334 26.5375 7.34617 27.2763 7.43967 29.3865C7.50751 30.822 7.70001 31.7881 8.0465 32.681C8.35817 33.4785 8.72484 34.0523 9.33351 34.661C9.95134 35.277 10.5252 35.6455 11.3135 35.9498C12.2192 36.3 13.1835 36.4943 14.6135 36.5603C16.6375 36.6556 17.3452 36.6666 22 36.6666C26.5375 36.6666 27.2763 36.6538 29.3865 36.5603C30.8202 36.4925 31.7845 36.3 32.681 35.9535C33.4293 35.6778 34.106 35.2373 34.661 34.6646C35.2788 34.0486 35.6473 33.4748 35.9517 32.6846C36.3 31.7826 36.4943 30.8183 36.5603 29.3846C36.6557 27.3625 36.6667 26.653 36.6667 22C36.6667 17.4643 36.6538 16.7236 36.5603 14.6135C36.4925 13.1798 36.2982 12.2118 35.9517 11.3171C35.676 10.5688 35.2355 9.89211 34.6628 9.33713C34.108 8.76379 33.4313 8.32267 32.6828 8.04646C31.7845 7.69813 30.8202 7.50563 29.3865 7.43963C27.3643 7.34429 26.6567 7.33329 22 7.33329M22 3.66663C26.9812 3.66663 27.6027 3.68496 29.5588 3.77663C31.5095 3.86829 32.8405 4.17446 34.0083 4.62913C35.2183 5.09479 36.2377 5.72546 37.257 6.74296C38.1896 7.65914 38.911 8.76783 39.3708 9.99163C39.8237 11.1595 40.1317 12.4905 40.2233 14.443C40.3095 16.3973 40.3333 17.0188 40.3333 22C40.3333 26.9811 40.315 27.6026 40.2233 29.557C40.1317 31.5113 39.8237 32.8386 39.3708 34.0083C38.911 35.2321 38.1896 36.3408 37.257 37.257C36.3408 38.1896 35.2321 38.911 34.0083 39.3708C32.8405 39.8236 31.5095 40.1316 29.5588 40.2233C27.6027 40.3095 26.9812 40.3333 22 40.3333C17.0188 40.3333 16.3973 40.315 14.4412 40.2233C12.4905 40.1316 11.1613 39.8236 9.99167 39.3708C8.76787 38.911 7.65918 38.1896 6.74301 37.257C5.8104 36.3408 5.089 35.2321 4.62917 34.0083C4.17451 32.8405 3.86834 31.5095 3.77667 29.557C3.68867 27.6026 3.66667 26.9811 3.66667 22C3.66667 17.0188 3.685 16.3973 3.77667 14.443C3.86834 12.4886 4.17451 11.1613 4.62917 9.99163C5.089 8.76783 5.8104 7.65914 6.74301 6.74296C7.65918 5.81035 8.76787 5.08896 9.99167 4.62913C11.1595 4.17446 12.4887 3.86829 14.4412 3.77663C16.3992 3.69046 17.0207 3.66663 22.0018 3.66663" fill="#4E4D4D"/>
</svg>
