<svg width="30" height="30" viewBox="0 0 30 30" fill="none" xmlns="http://www.w3.org/2000/svg">
<path fill-rule="evenodd" clip-rule="evenodd" d="M15 0C23.2845 0 30 6.7155 30 15C30 23.2845 23.2845 30 15 30C6.7155 30 0 23.2845 0 15C0 6.7155 6.7155 0 15 0ZM11.6895 19.9395C11.4163 20.2224 11.2651 20.6013 11.2685 20.9946C11.2719 21.3879 11.4297 21.7641 11.7078 22.0422C11.9859 22.3203 12.3621 22.4781 12.7554 22.4815C13.1487 22.4849 13.5276 22.3337 13.8105 22.0605L19.8105 16.0605C20.0917 15.7792 20.2497 15.3977 20.2497 15C20.2497 14.6023 20.0917 14.2208 19.8105 13.9395L13.8105 7.9395C13.5276 7.66626 13.1487 7.51507 12.7554 7.51849C12.3621 7.52191 11.9859 7.67966 11.7078 7.95777C11.4297 8.23588 11.2719 8.6121 11.2685 9.0054C11.2651 9.39869 11.4163 9.7776 11.6895 10.0605L16.629 15L11.6895 19.9395Z" fill="#042A4B"/>
</svg>
